PathFileType	4	(X/Y/Z)	c:/Users/goper/Files/vsCode/490R/osim_files/A05/A05_Fast_03.trc
DataRate	CameraRate	NumFrames	NumMarkers	Units                	OrigDataRate	OrigDataStartFrame	OrigNumFrames
250.00	250.00	5	36	mm	250.0	1376	2200
                Frame#	Time	LPSIS			LASIS			LTH1			LTH2			LTH3			LTH4			LLFE			LMFE			LSH1			LSH2			LSH3			LSH4			LLMAL			LMMAL			LCAL			LMTP5			LTOE			LMTP1			RPSIS			RASIS			RTH1			RTH2			RTH3			RTH4			RLFE			RMFE			RSH1			RSH2			RSH3			RSH4			RLMAL			RMMAL			RCAL			RMTP1			RTOE			RMTP5		
		X1	Y1	Z1	X2	Y2	Z2	X3	Y3	Z3	X4	Y4	Z4	X5	Y5	Z5	X6	Y6	Z6	X7	Y7	Z7	X8	Y8	Z8	X9	Y9	Z9	X10	Y10	Z10	X11	Y11	Z11	X12	Y12	Z12	X13	Y13	Z13	X14	Y14	Z14	X15	Y15	Z15	X16	Y16	Z16	X17	Y17	Z17	X18	Y18	Z18	X19	Y19	Z19	X20	Y20	Z20	X21	Y21	Z21	X22	Y22	Z22	X23	Y23	Z23	X24	Y24	Z24	X25	Y25	Z25	X26	Y26	Z26	X27	Y27	Z27	X28	Y28	Z28	X29	Y29	Z29	X30	Y30	Z30	X31	Y31	Z31	X32	Y32	Z32	X33	Y33	Z33	X34	Y34	Z34	X35	Y35	Z35	X36	Y36	Z36

1376	5.50000	-1519.39636	996.03308	319.87994	-1715.65247	949.12177	414.70181	0.00000	0.00000	0.00000	-1667.54224	617.56946	455.95456	-1698.22083	678.93231	471.10733	-1714.20984	640.26996	465.74026	-1774.13916	472.57306	437.11652	-1764.24158	467.11380	337.59671	-1766.73389	369.53308	451.05469	-1777.64160	328.06564	452.53961	0.00000	0.00000	0.00000	-1827.71338	333.67593	438.49130	-1853.66870	116.28004	443.59885	-1844.88818	116.60788	353.15768	-1782.12024	49.44232	400.29428	-1994.18640	86.14053	458.94495	-2032.07422	115.22916	393.50958	-1990.21741	96.68461	349.83453	-1522.40076	1004.19928	238.02142	-1698.15833	954.83612	116.89491	-1549.80029	600.97235	75.28409	-1552.24988	559.35992	83.90511	-1608.38184	598.41254	96.22707	-1598.76721	553.25989	102.94763	-1507.45081	524.28394	90.00219	-1534.23547	495.05505	230.24304	-1369.45374	295.71564	101.96198	-1350.39661	253.41151	112.32191	-1423.96887	264.92471	105.85851	-1393.84253	224.89751	112.92603	-1307.75928	148.41901	132.08540	-1364.07166	154.88777	216.97379	-1239.93042	107.97860	206.79988	-1443.02319	55.76682	207.80609	-1471.41516	53.47149	155.26738	-1404.42810	44.54549	93.41421
1377	5.50400	-1524.35010	995.53802	320.77551	-1720.70898	948.45959	415.18030	0.00000	0.00000	0.00000	-1671.08276	617.04755	456.19165	-1701.85364	678.35083	471.46893	-1717.71912	639.58276	466.02713	-1776.94556	471.68045	437.45090	-1767.35193	466.28836	337.90137	-1769.11694	368.71161	451.24146	-1779.88708	327.10379	452.74255	0.00000	0.00000	0.00000	-1829.91882	332.59210	438.75409	-1855.21057	115.45615	443.66248	-1846.65186	115.84547	353.20862	-1782.87000	49.72057	400.19925	-1995.31995	83.67104	459.35706	-2033.38257	112.22054	393.75873	-1991.76685	94.12839	350.31100	-1527.10583	1003.92938	238.87848	-1702.85071	954.63507	117.44278	-1553.61548	601.26868	75.29530	-1556.10901	559.63611	83.73506	-1612.25647	598.47723	96.00597	-1602.72339	553.43750	102.35042	-1511.26282	524.60175	90.00551	-1538.64124	495.00238	229.92229	-1371.76514	296.96594	101.98592	-1351.86829	254.29124	112.48209	-1426.04309	265.77072	105.53876	-1395.57751	225.98279	112.55252	-1309.06104	150.01459	131.98697	-1365.77771	155.88164	216.67456	-1240.95593	110.06188	206.65344	-1443.17993	55.74044	207.58850	-1471.53516	53.33171	155.19901	-1404.60291	44.67277	93.43123
1378	5.50800	-1529.13806	995.12164	321.57568	-1725.67065	947.81207	415.44141	0.00000	0.00000	0.00000	-1674.30750	616.69739	456.45425	-1705.48364	677.84802	471.85959	-1721.18713	639.01190	466.46472	-1779.74695	470.82767	437.77832	-1770.27783	465.63721	338.29501	-1771.37500	367.91528	451.53656	-1781.83313	326.25833	452.96515	-1828.80371	375.23029	433.17886	-1832.16809	331.56351	439.15591	-1856.55640	114.60555	443.84732	-1848.09131	115.05413	353.42548	-1783.58826	50.12301	399.95816	-1996.21313	81.32987	459.93103	-2034.88708	109.53442	394.48264	-1993.13916	91.79992	351.04001	-1531.87476	1003.68896	239.71870	-1707.37988	954.58636	118.01688	-1557.65588	601.54932	75.25032	-1560.08911	559.91498	83.56501	-1616.48181	598.62744	95.72382	-1606.80652	553.51782	102.00613	-1515.15674	524.89343	89.99979	-1543.09326	494.89963	229.61336	-1374.19202	298.35483	101.90062	-1354.37830	255.63356	112.26648	-1428.21802	266.68228	105.08219	-1397.54248	227.08607	112.25432	-1310.53235	151.67821	131.77240	-1367.46985	156.90234	216.27423	-1242.17529	112.20940	206.51593	-1443.27747	55.72713	207.32903	-1471.66138	53.16369	155.12328	-1404.53296	44.88957	93.32826
1379	5.51200	-1533.77600	994.88989	322.28268	-1730.53174	947.24780	415.79395	0.00000	0.00000	0.00000	-1677.60803	616.45520	456.64990	-1708.95789	677.31323	472.27643	-1724.49316	638.50238	466.88477	-1782.35657	470.05804	438.29306	-1773.50623	465.05664	338.69455	-1773.37122	367.12137	451.83746	-1783.74878	325.46298	453.19083	0.00000	0.00000	0.00000	-1833.68372	330.50476	439.55493	-1857.63208	114.08262	445.78683	-1849.66797	114.42660	353.83374	-1784.23047	50.30379	399.87903	-1996.95081	78.97395	460.65500	-2036.21814	107.09660	395.45432	-1995.29211	90.85411	349.91263	-1536.60962	1003.43634	240.56499	-1712.03406	954.51221	118.57995	-1561.93079	601.82733	75.24347	-1564.35486	560.14783	83.39465	-1620.74902	598.73120	95.41181	-1611.09668	553.56598	101.75077	-1519.39856	525.23260	89.92271	-1547.68945	494.80252	229.22981	-1376.84814	299.65356	101.74527	-1356.63171	256.98981	112.12761	-1430.57581	267.56870	104.64943	-1399.70703	228.23233	111.88468	-1312.04297	153.46526	131.52937	-1369.31848	157.91986	215.82867	-1243.41602	114.51093	206.36063	-1443.39392	55.69997	207.04410	-1471.73828	52.98636	154.99886	-1404.99878	44.88290	93.46179
1380	5.51600	-1538.52917	994.63544	322.98187	-1735.43811	946.80487	416.26065	0.00000	0.00000	0.00000	-1680.78894	616.21497	456.87048	-1712.44006	676.94067	472.77481	-1727.77759	637.99921	467.43140	-1784.96313	469.33612	438.88480	-1776.45801	464.51376	339.20016	-1775.44348	366.42761	452.13818	-1785.47070	324.74939	453.48184	-1833.13501	373.25262	434.35532	-1835.53552	329.44733	440.10327	-1859.39697	114.00784	444.44080	-1849.89819	113.27249	355.01889	-1784.73181	50.35157	399.90350	-1997.53918	76.90883	461.47525	-2037.46851	104.95994	396.54462	-1997.14160	89.59857	351.68713	-1541.27417	1003.30414	241.32648	-1716.61816	954.46649	119.09805	-1566.36462	602.09479	75.22464	-1568.80969	560.39819	83.19981	-1625.32397	598.90234	95.11801	0.00000	0.00000	0.00000	-1524.30652	525.78900	90.10583	-1554.30994	495.19690	227.95277	-1379.40161	301.03940	101.64075	-1359.08044	258.39999	111.86030	-1433.09216	268.52744	104.23208	-1401.97205	229.34749	111.43124	-1313.72693	155.26498	131.31741	-1371.30188	159.12550	215.28430	-1244.70410	117.00658	206.17001	-1443.51575	55.61683	206.72954	-1471.87109	52.82086	154.94046	-1405.27112	45.01608	93.48955
